<?xml version="1.0" encoding="UTF-8" standalone="no"?>
<svg
   xmlns:svg="http://www.w3.org/2000/svg"
   xmlns="http://www.w3.org/2000/svg"
   xmlns:xlink="http://www.w3.org/1999/xlink"
   id="svg915"
   version="1.1"
   viewBox="0 0 1024 1024"
   height="1024px"
   width="1024px">
  <defs
     id="defs906">
    <linearGradient
       id="linearGradient953">
      <stop
         id="stop949"
         offset="0"
         style="stop-color:#3790ee;stop-opacity:1;" />
      <stop
         id="stop951"
         offset="1"
         style="stop-color:#3790ee;stop-opacity:0;" />
    </linearGradient>
    <circle
       r="465"
       cy="512"
       cx="512"
       id="path-1" />
    <filter
       id="filter-2"
       filterUnits="objectBoundingBox"
       height="104.1%"
       width="104.1%"
       y="-1.5%"
       x="-2.0%">
      <feMorphology
         id="feMorphology892"
         result="shadowSpreadOuter1"
         in="SourceAlpha"
         operator="dilate"
         radius="0.5" />
      <feOffset
         id="feOffset894"
         result="shadowOffsetOuter1"
         in="shadowSpreadOuter1"
         dy="5"
         dx="0" />
      <feGaussianBlur
         id="feGaussianBlur896"
         result="shadowBlurOuter1"
         in="shadowOffsetOuter1"
         stdDeviation="5" />
      <feColorMatrix
         id="feColorMatrix898"
         in="shadowBlurOuter1"
         type="matrix"
         values="0 0 0 0 0   0 0 0 0 0   0 0 0 0 0  0 0 0 0.35 0" />
    </filter>
    <linearGradient
       gradientUnits="userSpaceOnUse"
       gradientTransform="scale(0.97164582,1.0291816)"
       id="linearGradient-3"
       y2="779.58052"
       x2="815.12002"
       y1="188.49929"
       x1="218.1865">
      <stop
         id="stop901"
         offset="0%"
         stop-color="#56CCF2" />
      <stop
         id="stop903"
         offset="100%"
         stop-color="#2F80ED" />
    </linearGradient>
    <radialGradient
       gradientUnits="userSpaceOnUse"
       gradientTransform="matrix(3.0772414,0.00261821,-0.00446649,5.2491736,-1071.493,-3072.7139)"
       r="247.18153"
       fy="746.10089"
       fx="517.42926"
       cy="746.10089"
       cx="517.42926"
       id="radialGradient955"
       xlink:href="#linearGradient953" />
  </defs>
  <g
     id="Oval"
     style="fill:none;fill-rule:evenodd;stroke:none;stroke-width:1">
    <use
       xlink:href="#path-1"
       id="use908"
       style="fill:#000000;fill-opacity:1;filter:url(#filter-2)"
       x="0"
       y="0"
       width="100%"
       height="100%" />
    <use
       xlink:href="#path-1"
       id="use910"
       style="fill:#ffffff;fill-rule:evenodd"
       x="0"
       y="0"
       width="100%"
       height="100%" />
  </g>
  <flowRoot
     style="font-style:normal;font-weight:normal;font-size:666.66666667px;line-height:1.25;font-family:sans-serif;letter-spacing:0px;word-spacing:0px;fill:#000000;fill-opacity:1;stroke:none;"
     id="flowRoot925"
     xml:space="preserve"><flowRegion
       style="font-size:666.66666667px;"
       id="flowRegion927"><rect
         style="font-size:666.66666667px;"
         y="206.66818"
         x="276.72519"
         height="583.80841"
         width="475.22006"
         id="rect929" /></flowRegion><flowPara
       style="font-size:666.66666667px;"
       id="flowPara931">S</flowPara></flowRoot>  <path
     id="text945"
     d="m 766.77201,655.8202 c 3.11793,69.04353 -35.88386,139.49573 -100.22433,167.44745 -72.09559,34.94797 -155.95276,33.81374 -233.24161,20.48347 C 366.5539,830.54645 302.75592,785.34358 281.9175,718.6464 c -17.43595,-36.87124 -11.3115,-40.50877 25.71488,-46.78823 21.99329,-4.67703 39.88893,-16.51579 47.41722,14.74413 16.95993,48.91416 63.40025,83.58912 114.46762,89.16842 56.45043,9.70648 118.81529,7.59633 169.58994,-21.28262 58.19701,-35.46114 66.64515,-130.40196 12.08117,-172.81184 -67.17708,-42.2106 -149.49664,-45.35747 -222.17706,-74.15266 -56.05094,-18.66164 -110.9234,-58.69671 -124.40066,-119.24361 -18.42841,-70.17516 0.84982,-156.85716 66.82545,-195.74281 67.20298,-42.15242 150.92456,-40.8346 226.84682,-30.93227 58.68297,8.68376 116.36639,44.07881 137.3748,101.67292 12.91978,29.36474 15.88327,45.58627 -14.08664,53.07322 -28.50847,2.98539 -41.66139,21.86186 -54.44076,-11.81445 -16.38952,-43.87969 -59.79858,-74.11828 -106.27081,-76.64898 -53.16143,-7.02146 -113.81733,-3.7132 -156.806,31.74107 -39.53411,40.38466 -38.11497,118.36524 12.91211,148.99662 43.77301,28.95218 97.48637,34.76231 146.56209,50.41092 65.16227,16.9051 138.94897,37.77525 177.95153,97.32514 18.22152,29.6271 25.75984,64.93318 25.29281,99.45883 z"
     style="font-style:normal;font-weight:normal;font-size:920.72296143px;line-height:1.25;font-family:sans-serif;letter-spacing:0px;word-spacing:0px;fill:url(#radialGradient955);fill-opacity:1;stroke:none;stroke-width:1.72635555" />
</svg>
